<svg xmlns="http://www.w3.org/2000/svg" viewBox="0 0 192 192">
  <defs>
    <linearGradient id="bg192" x1="0" y1="0" x2="192" y2="192" gradientUnits="userSpaceOnUse">
      <stop offset="0%" stop-color="#4f8cff"/>
      <stop offset="100%" stop-color="#2563eb"/>
    </linearGradient>
  </defs>
  <!-- Rounded rectangle background -->
  <rect width="192" height="192" fill="url(#bg192)" rx="42"/>
  <!-- Clipboard base -->
  <rect x="48" y="30" width="96" height="132" rx="8" fill="white" opacity="0.95"/>
  <rect x="60" y="30" width="72" height="12" rx="3" fill="url(#bg192)"/>
  <!-- Checkbox 1 -->
  <rect x="60" y="60" width="14" height="14" rx="2" fill="#e5e7eb" stroke="#4f8cff" stroke-width="1.5"/>
  <polyline points="67,67 69,70 74,64" fill="none" stroke="#2563eb" stroke-width="2.2" stroke-linecap="round" stroke-linejoin="round"/>
  <line x1="82" y1="66" x2="130" y2="66" stroke="#d1d5db" stroke-width="2" stroke-linecap="round"/>
  <!-- Checkbox 2 -->
  <rect x="60" y="86" width="14" height="14" rx="2" fill="#e5e7eb" stroke="#4f8cff" stroke-width="1.5"/>
  <polyline points="67,93 69,96 74,90" fill="none" stroke="#2563eb" stroke-width="2.2" stroke-linecap="round" stroke-linejoin="round"/>
  <line x1="82" y1="92" x2="140" y2="92" stroke="#d1d5db" stroke-width="2" stroke-linecap="round"/>
  <!-- Checkbox 3 (checked) -->
  <rect x="60" y="112" width="14" height="14" rx="2" fill="#2563eb" stroke="#2563eb" stroke-width="1.5"/>
  <polyline points="67,119 69,122 74,116" fill="none" stroke="white" stroke-width="2.2" stroke-linecap="round" stroke-linejoin="round"/>
  <line x1="82" y1="118" x2="135" y2="118" stroke="#d1d5db" stroke-width="2" stroke-linecap="round"/>
  <!-- Checkbox 4 (empty) -->
  <rect x="60" y="138" width="14" height="14" rx="2" fill="#e5e7eb" stroke="#4f8cff" stroke-width="1.5"/>
  <line x1="82" y1="144" x2="124" y2="144" stroke="#d1d5db" stroke-width="2" stroke-linecap="round"/>
</svg>
